#!OML:ASF I:\Actors\actors\Patient Classification 1\Patient 1\Session 1\Subject1.ASF
:FULLY-SPECIFIED
:DEGREES
901
root 2.42652 17.6229 8.98263 35.3956 36.0761 -11.9416
lowerback 18.9039 1.77077 4.23566
upperback -6.19623 3.20985 -2.01037
thorax -17.6096 0.783299 -5.84541
lowerneck -0.317166 8.10051 7.79008
upperneck -4.76535 10.6366 -9.46624
head -0.465985 5.35967 -4.42963
rclavicle 6.36111e-015 -4.53229e-014
rhumerus -40.1221 -7.01299 -86.146
rradius 49.0754
rwrist 9.94704
rhand 9.45493 -25.9235
rfingers 7.12502
rthumb 34.6092 -52.5699
lclavicle 6.36111e-015 -4.53229e-014
lhumerus -35.0674 -0.701174 89.4511
lradius 42.5313
lwrist 6.73835
lhand -24.3395 -13.5262
lfingers 7.12502
lthumb 2.14945 16.4428
rfemur -25.9046 32.12 10.559
rtibia -3.04547
rfoot -62.1233 -42.7936
rtoes 48.4057
lfemur -44.6385 -39.195 25.4805
ltibia -8.34182
lfoot -7.28685 34.9516
ltoes 16.3991
902
root 2.44836 17.627 8.98834 35.4634 35.8669 -12.0103
lowerback 18.8785 1.78288 4.20163
upperback -6.18713 3.22241 -1.97095
thorax -17.584 0.797655 -5.7811
lowerneck -0.524306 8.22364 7.80863
upperneck -4.62535 10.7969 -9.43008
head -0.369775 5.43452 -4.39865
rclavicle 2.94201e-014 8.18993e-014
rhumerus -40.1804 -7.05328 -86.1378
rradius 49.1732
rwrist 9.96511
rhand 9.39845 -25.9288
rfingers 7.12502
rthumb 34.5556 -52.5875
lclavicle 2.94201e-014 8.18993e-014
lhumerus -35.1128 -0.761687 89.5013
lradius 42.5507
lwrist 6.68606
lhand -24.2817 -13.4877
lfingers 7.12502
lthumb 2.20531 16.4807
rfemur -26.1157 32.3287 10.3035
rtibia -2.97022
rfoot -62.2302 -42.6779
rtoes 48.5548
lfemur -44.5077 -38.9029 25.172
ltibia -8.27231
lfoot -6.99272 34.7778
ltoes 15.8104
903
root 2.47884 17.6298 8.98128 35.2755 35.822 -12.3243
lowerback 19.005 1.65486 4.68656
upperback -6.19282 3.19782 -1.87655
thorax -17.6591 0.73516 -5.94821
lowerneck -0.253981 8.33554 7.90041
upperneck -4.79443 10.9546 -9.51387
head -0.447345 5.51976 -4.46052
rclavicle 6.67916e-014 1.19271e-014
rhumerus -40.303 -6.97812 -86.1673
rradius 49.2408
rwrist 10.0334
rhand 10.1306 -25.7138
rfingers 7.12502
rthumb 35.2502 -52.2111
lclavicle 6.67916e-014 1.19271e-014
lhumerus -35.2068 -0.599824 89.4723
lradius 42.5031
lwrist 6.61901
lhand -24.168 -13.6614
lfingers 7.12502
lthumb 2.31511 16.3058
rfemur -26.1082 32.5174 10.3915
rtibia -2.98173
rfoot -62.5035 -42.411
rtoes 48.892
lfemur -44.314 -38.7293 25.0506
ltibia -8.16828
lfoot -6.77127 34.6354
ltoes 15.4599
904
root 2.51442 17.6305 8.95858 34.9302 35.923 -12.8454
lowerback 19.2755 1.36562 5.6406
upperback -6.24607 3.10454 -1.70613
thorax -17.8839 0.584767 -6.28396
lowerneck 0.374709 8.46627 7.96605
upperneck -5.18125 11.1443 -9.78076
head -0.646476 5.63272 -4.61057
rclavicle 5.48646e-014 -9.14409e-014
rhumerus -40.4447 -6.67493 -86.2501
rradius 49.2244
rwrist 10.0791
rhand 12.3528 -25.326
rfingers 7.12502
rthumb 37.3544 -51.298
lclavicle 5.48646e-014 -9.14409e-014
lhumerus -35.394 -0.151 89.375
lradius 42.4424
lwrist 6.51995
lhand -24.1562 -13.7614
lfingers 7.12502
lthumb 2.32647 16.2057
rfemur -26.0391 32.6503 10.7047
rtibia -3.03274
rfoot -62.8255 -42.0352
rtoes 49.2753
lfemur -44.1685 -38.574 25.1721
ltibia -8.04446
lfoot -6.63243 34.4967
ltoes 15.2457
905
root 2.53837 17.6315 8.95125 34.782 35.812 -13.1638
lowerback 19.4157 1.17403 5.9899
upperback -6.26257 2.9781 -1.52501
thorax -18.0117 0.496102 -6.23749
lowerneck 0.625921 8.63557 7.9732
upperneck -5.3827 11.3716 -9.99203
head -0.720936 5.75688 -4.70154
rclavicle 1.35174e-014 -9.54166e-015
rhumerus -40.4509 -6.30671 -86.3537
rradius 49.2319
rwrist 9.9732
rhand 11.1716 -25.8558
rfingers 7.12502
rthumb 36.2367 -52.1138
lclavicle 1.35174e-014 -9.54166e-015
lhumerus -35.5201 0.264164 89.2886
lradius 42.4592
lwrist 6.51731
lhand -24.2101 -13.6824
lfingers 7.12502
lthumb 2.27448 16.2853
rfemur -26.1543 32.8917 10.7205
rtibia -3.0143
rfoot -63.1478 -41.6984
rtoes 49.5908
lfemur -43.9729 -38.2838 25.0582
ltibia -7.98468
lfoot -6.32747 34.3315
ltoes 14.4584
906
root 2.55306 17.6315 8.96074 34.8546 35.5786 -13.3237
lowerback 19.2996 1.13665 5.89197
upperback -6.26814 2.91478 -1.39849
thorax -17.9645 0.493841 -6.0031
lowerneck 0.640568 8.78067 7.88754
upperneck -5.46352 11.5667 -9.83757
head -0.746378 5.8544 -4.62919
rclavicle -5.1684e-014 -1.98785e-014
rhumerus -40.4893 -6.11938 -86.4567
rradius 49.2163
rwrist 10.2669
rhand 10.9325 -25.8497
rfingers 7.12502
rthumb 36.0102 -52.1637
lclavicle -5.1684e-014 -1.98785e-014
lhumerus -35.6051 0.296193 89.2449
lradius 42.5211
lwrist 6.64517
lhand -24.1731 -13.6506
lfingers 7.12502
lthumb 2.31015 16.3166
rfemur -26.4594 33.1902 10.5128
rtibia -2.96688
rfoot -63.4553 -41.546
rtoes 49.8365
lfemur -43.8062 -37.8728 24.8304
ltibia -7.98722
lfoot -5.94498 34.1757
ltoes 13.5536
907
root 2.57647 17.6251 8.97744 34.6809 35.2683 -13.6485
lowerback 19.1754 1.2041 5.9874
upperback -6.21115 3.03219 -1.33449
thorax -17.7947 0.551848 -6.00949
lowerneck 0.764035 8.8063 7.91531
upperneck -5.65818 11.6076 -9.64699
head -0.839322 5.87446 -4.5821
rclavicle -9.54166e-015 -4.37326e-014
rhumerus -40.6373 -6.12415 -86.5776
rradius 48.9571
rwrist 11.4649
rhand 9.17781 -25.5804
rfingers 7.12502
rthumb 34.3461 -52.2866
lclavicle -9.54166e-015 -4.37326e-014
lhumerus -35.6472 0.124833 89.2345
lradius 42.5205
lwrist 6.64191
lhand -24.1297 -13.6351
lfingers 7.12502
lthumb 2.35207 16.3317
rfemur -26.5277 33.6547 10.4741
rtibia -2.99648
rfoot -63.7723 -41.4089
rtoes 50.0652
lfemur -43.2475 -37.579 24.4153
ltibia -8.05708
lfoot -5.65163 34.0721
ltoes 12.9519
908
root 2.61824 17.6131 9.01317 34.3493 34.4033 -13.8113
lowerback 19.0764 1.44746 5.73627
upperback -6.03231 3.2712 -1.39003
thorax -17.4752 0.70343 -5.99301
lowerneck 1.02271 8.74105 8.16089
upperneck -6.03614 11.5222 -9.81953
head -0.992053 5.83781 -4.72255
rclavicle 2.46493e-014 8.74653e-015
rhumerus -40.7094 -6.34052 -86.5461
rradius 48.9465
rwrist 11.4838
rhand 8.44608 -25.8103
rfingers 7.12502
rthumb 33.651 -52.6708
lclavicle 2.46493e-014 8.74653e-015
lhumerus -35.665 -0.203798 89.2946
lradius 42.5142
lwrist 6.81506
lhand -24.1862 -13.6112
lfingers 7.12502
lthumb 2.29756 16.3561
rfemur -26.2689 34.4911 10.0741
rtibia -3.15493
rfoot -64.1013 -41.1954
rtoes 50.2606
lfemur -41.8391 -37.5076 22.9262
ltibia -8.20675
lfoot -5.39119 34.0062
ltoes 12.4097
909
root 2.62731 17.6213 9.03508 35.022 33.7437 -13.2105
lowerback 18.8436 1.58003 4.8
upperback -6.07848 3.17999 -1.46862
thorax -17.4333 0.763301 -5.50876
lowerneck 1.24632 8.68384 8.2364
upperneck -6.57076 11.4071 -10.3081
head -1.05729 5.80869 -4.44712
rclavicle -3.97569e-015 3.02153e-014
rhumerus -40.7504 -6.4587 -86.4967
rradius 48.9394
rwrist 11.5018
rhand 8.48281 -25.8072
rfingers 7.12502
rthumb 33.686 -52.6601
lclavicle -3.97569e-015 3.02153e-014
lhumerus -35.7092 -0.639771 89.3952
lradius 42.5468
lwrist 7.20201
lhand -24.2905 -13.5912
lfingers 7.12502
lthumb 2.19677 16.3772
rfemur -26.8674 34.717 8.88719
rtibia -3.06419
rfoot -64.4203 -40.9389
rtoes 50.5024
lfemur -41.7949 -37.1083 21.9045
ltibia -8.18548
lfoot -5.04816 33.8151
ltoes 11.7862
910
root 2.64361 17.6242 9.04765 34.9491 33.4301 -13.3549
lowerback 18.9392 1.59368 4.78571
upperback -6.02336 3.21329 -1.36991
thorax -17.4268 0.78857 -5.3986
lowerneck 1.33178 8.66239 8.13403
upperneck -6.77448 11.3762 -10.2072
head -1.14638 5.79678 -4.41431
rclavicle -3.26007e-014 3.18055e-014
rhumerus -40.7646 -6.47087 -86.4575
rradius 48.9265
rwrist 11.4845
rhand 8.65042 -25.7568
rfingers 7.12502
rthumb 33.8452 -52.5748
lclavicle -3.26007e-014 3.18055e-014
lhumerus -35.6931 -0.769486 89.4428
lradius 42.5425
lwrist 7.2951
lhand -24.3209 -13.5306
lfingers 7.12502
lthumb 2.16746 16.4381
rfemur -26.9156 35.1408 8.77822
rtibia -3.06224
rfoot -64.747 -40.6734
rtoes 50.7981
lfemur -41.357 -36.8097 21.4631
ltibia -8.26131
lfoot -4.71515 33.6594
ltoes 11.1748
911
root 2.661 17.6176 9.04997 34.1532 33.5438 -14.3388
lowerback 19.3051 1.46781 5.76455
upperback -5.90182 3.36449 -1.08475
thorax -17.4601 0.769338 -5.68778
lowerneck 1.37971 8.65381 8.10769
upperneck -6.77591 11.4011 -9.76466
head -1.31932 5.78787 -4.75235
rclavicle -3.18055e-014 -1.51076e-014
rhumerus -40.7758 -6.42145 -86.5039
rradius 48.8809
rwrist 11.5328
rhand 8.74049 -25.58
rfingers 7.12502
rthumb 33.9308 -52.3791
lclavicle -3.18055e-014 -1.51076e-014
lhumerus -35.6903 -0.682597 89.394
lradius 42.5766
lwrist 7.26014
lhand -24.2764 -13.4547
lfingers 7.12502
lthumb 2.2104 16.5136
rfemur -26.5371 35.7392 9.83774
rtibia -3.0943
rfoot -65.0916 -40.4826
rtoes 51.0392
lfemur -40.664 -36.5038 21.8509
ltibia -8.38687
lfoot -4.50606 33.4974
ltoes 10.9176
912
root 2.67332 17.6114 9.04206 34.1554 33.5013 -14.776
lowerback 19.2838 1.35313 6.28738
upperback -5.91297 3.3631 -0.993304
thorax -17.4444 0.719318 -5.87691
lowerneck 1.32884 8.65081 8.22879
upperneck -7.19055 11.3545 -10.0764
head -1.27371 5.78442 -4.40525
rclavicle -7.31528e-014 4.77083e-015
rhumerus -40.7855 -6.33401 -86.6774
rradius 48.9125
rwrist 11.4306
rhand 8.62434 -25.4664
rfingers 7.12502
rthumb 33.8204 -52.2898
lclavicle -7.31528e-014 4.77083e-015
lhumerus -35.6597 -0.734782 89.2272
lradius 42.6412
lwrist 7.34265
lhand -24.2305 -13.4009
lfingers 7.12502
lthumb 2.25473 16.5669
rfemur -26.9356 36.0061 9.90928
rtibia -3.04448
rfoot -65.3702 -40.2749
rtoes 51.3744
lfemur -40.771 -35.9323 22.1357
ltibia -8.31078
lfoot -4.36952 33.2995
ltoes 10.9932
913
root 2.69985 17.6135 9.0378 34.3054 33.0834 -14.7144
lowerback 19.4431 1.35685 6.43569
upperback -5.87852 3.39794 -1.10914
thorax -17.4826 0.706088 -6.11825
lowerneck 1.46698 8.56791 8.5145
upperneck -7.60556 11.2393 -10.2282
head -1.40283 5.73055 -4.51708
rclavicle -4.45278e-014 2.14687e-014
rhumerus -40.8299 -6.41867 -86.7405
rradius 49.0043
rwrist 11.2048
rhand 8.61255 -25.5532
rfingers 7.12502
rthumb 33.8092 -52.3791
lclavicle -4.45278e-014 2.14687e-014
lhumerus -35.5254 -0.940193 89.1292
lradius 42.5921
lwrist 7.39349
lhand -24.1736 -13.4381
lfingers 7.12502
lthumb 2.30972 16.5291
rfemur -27.1386 36.2839 9.38314
rtibia -3.13734
rfoot -65.6528 -39.9601
rtoes 51.7737
lfemur -40.5883 -35.629 21.5104
ltibia -8.1919
lfoot -4.26631 33.1523
ltoes 11.1397
